<svg width="8" height="14" viewBox="0 0 8 14" fill="none" xmlns="http://www.w3.org/2000/svg">
<path fill-rule="evenodd" clip-rule="evenodd" d="M2.42462 3.6626C2.65744 3.47803 2.93436 3.34375 3.23077 3.25854V6.12524C2.93819 6.04517 2.66426 5.9082 2.42462 5.72217C2.02051 5.40112 1.86461 5.02368 1.86461 4.69238C1.86461 4.36108 2.02051 3.98364 2.42462 3.6626ZM4.76922 10.7559V7.85962C5.12512 7.94678 5.45025 8.09351 5.71385 8.29126C6.15179 8.61963 6.30769 8.99487 6.30769 9.30786C6.30769 9.62061 6.15179 9.99585 5.71385 10.3242C5.43115 10.5298 5.10986 10.6772 4.76922 10.7559ZM4.54393 0.302246C4.68819 0.446533 4.76922 0.64209 4.76922 0.846191V1.68408C5.41199 1.79224 6.01784 2.05835 6.5323 2.4585L6.95795 2.79688C7.11775 2.92383 7.22061 3.10889 7.24388 3.31177C7.26716 3.5144 7.20895 3.71802 7.08205 3.87793C6.95515 4.03784 6.76997 4.14062 6.56724 4.16382C6.36452 4.18726 6.16084 4.12891 6.00102 4.00195L5.57538 3.66357C5.34256 3.479 5.06666 3.34473 4.76922 3.2605V6.29126C5.44481 6.39307 6.08566 6.65698 6.63692 7.06055C7.40103 7.63379 7.84616 8.43896 7.84616 9.30762C7.84616 10.1765 7.40103 10.9814 6.63692 11.5549C6.08552 11.958 5.44469 12.2217 4.76922 12.323V13.1538C4.76922 13.3579 4.68819 13.5535 4.54393 13.6978C4.39967 13.842 4.20401 13.9231 4 13.9231C3.79599 13.9231 3.60033 13.842 3.45607 13.6978C3.31181 13.5535 3.23077 13.3579 3.23077 13.1538V12.3242C2.56206 12.2163 1.90974 11.9651 1.36308 11.5549L0.461531 10.8779C0.298323 10.7556 0.190428 10.5732 0.161574 10.3713C0.13272 10.1694 0.185286 9.96436 0.307692 9.80103C0.430098 9.6377 0.612334 9.53003 0.814284 9.50098C0.91429 9.48682 1.01613 9.49243 1.11398 9.51733C1.21184 9.54248 1.3038 9.58667 1.38461 9.64722L2.28615 10.3242C2.5688 10.53 2.89007 10.677 3.23077 10.7559V7.70166C2.59794 7.58984 1.98256 7.33643 1.4677 6.92627C0.736403 6.3457 0.326155 5.54248 0.326155 4.69238C0.326155 3.84302 0.736403 3.03906 1.46666 2.4585C1.98134 2.05786 2.58755 1.79126 3.23077 1.68311V0.846191C3.23077 0.64209 3.31181 0.446533 3.45607 0.302246C3.60033 0.157959 3.79599 0.0769043 4 0.0769043C4.20401 0.0769043 4.39967 0.157959 4.54393 0.302246Z" fill="black"/>
</svg>
